<svg width="224" height="233" viewBox="0 0 224 233" fill="none" xmlns="http://www.w3.org/2000/svg">
<circle cx="112" cy="112" r="104.5" transform="translate(0 4)" stroke="white" stroke-width="15"/>
<path d="M32.3242 43.8594C35.5143 43.8594 38.2161 44.9987 40.4297 47.2773C42.7083 49.4909 43.8477 52.1602 43.8477 55.2852C43.8477 58.4753 42.7083 61.2096 40.4297 63.4883C38.2161 65.7018 35.5143 66.8086 32.3242 66.8086C29.1992 66.8086 26.4974 65.7018 24.2188 63.4883C22.0052 61.2096 20.8984 58.4753 20.8984 55.2852C20.8984 52.0951 22.0052 49.3932 24.2188 47.1797C26.4323 44.9661 29.1341 43.8594 32.3242 43.8594ZM22.168 188V99.0352H7.8125V83.4102H40.7227V188H22.168Z" transform="translate(83)" fill="white"/>
<path d="M40.4297 47.2773L39.7124 47.9741L39.7225 47.9845L39.7329 47.9946L40.4297 47.2773ZM24.2188 63.4883L23.5015 64.1851L23.5116 64.1955L23.522 64.2056L24.2188 63.4883ZM24.2188 47.1797L23.5116 46.4726L24.2188 47.1797ZM22.168 188H21.168V189H22.168V188ZM22.168 99.0352H23.168V98.0352H22.168V99.0352ZM7.8125 99.0352H6.8125V100.035H7.8125V99.0352ZM7.8125 83.4102V82.4102H6.8125V83.4102H7.8125ZM40.7227 83.4102H41.7227V82.4102H40.7227V83.4102ZM40.7227 188V189H41.7227V188H40.7227ZM32.3242 44.8594C35.2454 44.8594 37.6881 45.8902 39.7124 47.9741L41.147 46.5806C38.7442 44.1072 35.7833 42.8594 32.3242 42.8594V44.8594ZM39.7329 47.9946C41.8213 50.0234 42.8477 52.4354 42.8477 55.2852H44.8477C44.8477 51.8849 43.5953 48.9584 41.1265 46.5601L39.7329 47.9946ZM42.8477 55.2852C42.8477 58.207 41.8158 60.6879 39.7226 62.7812L41.1368 64.1954C43.6008 61.7313 44.8477 58.7435 44.8477 55.2852H42.8477ZM39.7226 62.7812C37.7005 64.8032 35.2548 65.8086 32.3242 65.8086V67.8086C35.7739 67.8086 38.7317 66.6004 41.1368 64.1954L39.7226 62.7812ZM32.3242 65.8086C29.4642 65.8086 27.011 64.8066 24.9155 62.771L23.522 64.2056C25.9838 66.597 28.9342 67.8086 32.3242 67.8086V65.8086ZM24.936 62.7915C22.9046 60.7004 21.8984 58.2163 21.8984 55.2852H19.8984C19.8984 58.7342 21.1058 61.7189 23.5015 64.1851L24.936 62.7915ZM21.8984 55.2852C21.8984 52.3546 22.9038 49.9088 24.9259 47.8868L23.5116 46.4726C21.1066 48.8776 19.8984 51.8355 19.8984 55.2852H21.8984ZM24.9259 47.8868C26.9479 45.8648 29.3937 44.8594 32.3242 44.8594V42.8594C28.8746 42.8594 25.9167 44.0675 23.5116 46.4726L24.9259 47.8868ZM23.168 188V99.0352H21.168V188H23.168ZM22.168 98.0352H7.8125V100.035H22.168V98.0352ZM8.8125 99.0352V83.4102H6.8125V99.0352H8.8125ZM7.8125 84.4102H40.7227V82.4102H7.8125V84.4102ZM39.7227 83.4102V188H41.7227V83.4102H39.7227ZM40.7227 187H22.168V189H40.7227V187Z" transform="translate(83)" fill="black" fill-opacity="0.01"/>
</svg>
