<svg width="274" height="274" viewBox="0 0 274 274" fill="none" xmlns="http://www.w3.org/2000/svg">
<circle cx="112" cy="112" r="104.5" transform="translate(25 25)" stroke="white" stroke-width="15"/>
<g filter="url(#filter0_ddi)">
<path d="M32.2031 136.758C28.9688 136.57 24.8906 135.75 19.9688 134.297C15.0469 132.844 11.6719 131.508 9.84375 130.289L14.9062 117.352C17.3438 119.133 20.5547 120.703 24.5391 122.062C28.5703 123.422 32.1562 124.102 35.2969 124.102C40.7812 124.102 45.1875 122.602 48.5156 119.602C51.8438 116.602 53.5078 112.781 53.5078 108.141C53.5078 105.234 53.0156 102.656 52.0312 100.406C51.0938 98.1562 49.7812 96.3516 48.0938 94.9922C46.4531 93.5859 42.6797 91.5 36.7734 88.7344L28.4766 84.8672C21.4453 81.5859 16.5234 77.6953 13.7109 73.1953C10.9453 68.6953 9.5625 63.2812 9.5625 56.9531C9.5625 50.4375 11.6016 44.7656 15.6797 39.9375C19.8047 35.1094 25.3125 32.0625 32.2031 30.7969V19.5469H41.9766V30.3047C52.0547 30.7266 58.875 32.5547 62.4375 35.7891L58.2891 48.0234C56.4141 46.6641 53.5547 45.3516 49.7109 44.0859C45.8672 42.8203 42.3047 42.1875 39.0234 42.1875C34.2422 42.1875 30.4688 43.5469 27.7031 46.2656C24.9844 48.9844 23.625 52.4766 23.625 56.7422C23.625 59.3672 24.1172 61.7578 25.1016 63.9141C26.0859 66.0703 27.4922 67.8984 29.3203 69.3984C31.1484 70.8984 34.7109 72.9141 40.0078 75.4453L46.4766 78.4688C53.7891 81.8906 59.1328 86.0859 62.5078 91.0547C65.8828 95.9766 67.5703 102.305 67.5703 110.039C67.5703 116.414 65.2969 122.016 60.75 126.844C56.25 131.625 49.9922 134.695 41.9766 136.055V152.297H32.2031V136.758Z" transform="translate(101 52)" fill="white"/>
<path d="M32.2031 136.758H33.2031V135.814L32.261 135.759L32.2031 136.758ZM9.84375 130.289L8.91251 129.925L8.6191 130.674L9.28905 131.121L9.84375 130.289ZM14.9062 117.352L15.4963 116.544L14.4481 115.778L13.975 116.987L14.9062 117.352ZM24.5391 122.062L24.2162 123.009L24.2195 123.01L24.5391 122.062ZM52.0312 100.406L51.1082 100.791L51.1116 100.799L51.1151 100.807L52.0312 100.406ZM48.0938 94.9922L47.443 95.7514L47.4545 95.7614L47.4664 95.7709L48.0938 94.9922ZM36.7734 88.7344L37.1975 87.8287L37.1959 87.828L36.7734 88.7344ZM28.4766 84.8672L28.0537 85.7734L28.0541 85.7736L28.4766 84.8672ZM13.7109 73.1953L12.859 73.7189L12.8629 73.7253L13.7109 73.1953ZM15.6797 39.9375L14.9194 39.2879L14.9157 39.2922L15.6797 39.9375ZM32.2031 30.7969L32.3838 31.7804L33.2031 31.6299V30.7969H32.2031ZM32.2031 19.5469V18.5469H31.2031V19.5469H32.2031ZM41.9766 19.5469H42.9766V18.5469H41.9766V19.5469ZM41.9766 30.3047H40.9766V31.2637L41.9347 31.3038L41.9766 30.3047ZM62.4375 35.7891L63.3845 36.1102L63.5951 35.4893L63.1097 35.0487L62.4375 35.7891ZM58.2891 48.0234L57.7021 48.833L58.8005 49.6294L59.2361 48.3446L58.2891 48.0234ZM27.7031 46.2656L27.0021 45.5525L26.996 45.5585L27.7031 46.2656ZM40.0078 75.4453L39.5766 76.3476L39.5844 76.3512L40.0078 75.4453ZM46.4766 78.4688L46.9004 77.563L46.9 77.5628L46.4766 78.4688ZM62.5078 91.0547L61.6806 91.6166L61.6831 91.6202L62.5078 91.0547ZM60.75 126.844L60.022 126.158L60.0218 126.158L60.75 126.844ZM41.9766 136.055L41.8094 135.069L40.9766 135.21V136.055H41.9766ZM41.9766 152.297V153.297H42.9766V152.297H41.9766ZM32.2031 152.297H31.2031V153.297H32.2031V152.297ZM32.261 135.759C29.1339 135.578 25.1377 134.78 20.2519 133.338L19.6856 135.256C24.6436 136.72 28.8036 137.562 32.1453 137.756L32.261 135.759ZM20.2519 133.338C15.3324 131.885 12.0886 130.584 10.3985 129.457L9.28905 131.121C11.2552 132.432 14.7614 133.802 19.6856 135.256L20.2519 133.338ZM10.775 130.653L15.8375 117.716L13.975 116.987L8.91251 129.925L10.775 130.653ZM14.3162 118.159C16.8603 120.018 20.1709 121.629 24.2162 123.009L24.862 121.116C20.9385 119.777 17.8272 118.248 15.4963 116.544L14.3162 118.159ZM24.2195 123.01C28.3197 124.393 32.0167 125.102 35.2969 125.102V123.102C32.2958 123.102 28.8209 122.451 24.8586 121.115L24.2195 123.01ZM35.2969 125.102C40.9705 125.102 45.6344 123.545 49.1852 120.344L47.8461 118.859C44.7406 121.658 40.592 123.102 35.2969 123.102V125.102ZM49.1852 120.344C52.732 117.147 54.5078 113.053 54.5078 108.141H52.5078C52.5078 112.51 50.9555 116.056 47.8461 118.859L49.1852 120.344ZM54.5078 108.141C54.5078 105.121 53.9963 102.403 52.9474 100.005L51.1151 100.807C52.035 102.91 52.5078 105.347 52.5078 108.141H54.5078ZM52.9543 100.022C51.9608 97.6372 50.554 95.69 48.7211 94.2134L47.4664 95.7709C49.0085 97.0131 50.2267 98.6753 51.1082 100.791L52.9543 100.022ZM48.7445 94.2329C46.9831 92.7231 43.0816 90.584 37.1975 87.8287L36.3494 89.64C42.2778 92.416 45.9232 94.4488 47.443 95.7514L48.7445 94.2329ZM37.1959 87.828L28.899 83.9608L28.0541 85.7736L36.351 89.6408L37.1959 87.828ZM28.8994 83.961C21.9668 80.7258 17.232 76.9422 14.5589 72.6653L12.8629 73.7253C15.8149 78.4484 20.9238 82.4461 28.0537 85.7734L28.8994 83.961ZM14.5629 72.6717C11.9117 68.3579 10.5625 63.1333 10.5625 56.9531H8.5625C8.5625 63.4292 9.97891 69.0327 12.859 73.7189L14.5629 72.6717ZM10.5625 56.9531C10.5625 50.6657 12.523 45.2244 16.4436 40.5828L14.9157 39.2922C10.6801 44.3068 8.5625 50.2093 8.5625 56.9531H10.5625ZM16.44 40.5871C20.4002 35.9518 25.6941 33.0091 32.3838 31.7804L32.0225 29.8133C24.9309 31.1159 19.2092 34.267 14.9194 39.2879L16.44 40.5871ZM33.2031 30.7969V19.5469H31.2031V30.7969H33.2031ZM32.2031 20.5469H41.9766V18.5469H32.2031V20.5469ZM40.9766 19.5469V30.3047H42.9766V19.5469H40.9766ZM41.9347 31.3038C51.9911 31.7248 58.4862 33.5524 61.7653 36.5294L63.1097 35.0487C59.2638 31.557 52.1183 29.7284 42.0184 29.3056L41.9347 31.3038ZM61.4905 35.4679L57.342 47.7023L59.2361 48.3446L63.3845 36.1102L61.4905 35.4679ZM58.876 47.2138C56.8774 45.7648 53.9039 44.4137 50.0237 43.1361L49.3982 45.0358C53.2055 46.2894 55.9507 47.5633 57.7021 48.833L58.876 47.2138ZM50.0237 43.1361C46.1016 41.8447 42.4324 41.1875 39.0234 41.1875V43.1875C42.177 43.1875 45.6327 43.7959 49.3982 45.0358L50.0237 43.1361ZM39.0234 41.1875C34.0446 41.1875 29.9963 42.6091 27.0021 45.5525L28.4042 46.9787C30.9412 44.4847 34.4398 43.1875 39.0234 43.1875V41.1875ZM26.996 45.5585C24.0684 48.4862 22.625 52.2432 22.625 56.7422H24.625C24.625 52.71 25.9004 49.4826 28.4102 46.9727L26.996 45.5585ZM22.625 56.7422C22.625 59.495 23.1419 62.0293 24.1919 64.3294L26.0113 63.4988C25.0925 61.4863 24.625 59.2394 24.625 56.7422H22.625ZM24.1919 64.3294C25.2394 66.624 26.7397 68.5746 28.686 70.1715L29.9546 68.6254C28.2447 67.2223 26.9325 65.5167 26.0113 63.4988L24.1919 64.3294ZM28.686 70.1715C30.6185 71.7572 34.2829 73.8178 39.5766 76.3476L40.439 74.543C35.139 72.0103 31.6783 70.0397 29.9546 68.6254L28.686 70.1715ZM39.5844 76.3512L46.0531 79.3747L46.9 77.5628L40.4312 74.5394L39.5844 76.3512ZM46.0527 79.3745C53.2565 82.7455 58.4357 86.8394 61.6806 91.6166L63.335 90.4928C59.8299 85.3325 54.3216 81.0358 46.9004 77.563L46.0527 79.3745ZM61.6831 91.6202C64.9144 96.3326 66.5703 102.447 66.5703 110.039H68.5703C68.5703 102.162 66.8512 95.6205 63.3325 90.4892L61.6831 91.6202ZM66.5703 110.039C66.5703 116.148 64.402 121.507 60.022 126.158L61.478 127.529C66.1918 122.524 68.5703 116.68 68.5703 110.039H66.5703ZM60.0218 126.158C55.7037 130.746 49.6624 133.737 41.8094 135.069L42.1438 137.041C50.322 135.654 56.7963 132.504 61.4782 127.529L60.0218 126.158ZM40.9766 136.055V152.297H42.9766V136.055H40.9766ZM41.9766 151.297H32.2031V153.297H41.9766V151.297ZM33.2031 152.297V136.758H31.2031V152.297H33.2031Z" transform="translate(101 52)" fill="white" fill-opacity="0.01"/>
</g>
<g filter="url(#filter1_dd)">
<circle cx="112" cy="112" r="104.5" transform="translate(25 25)" stroke="white" stroke-width="15"/>
</g>
<g filter="url(#filter2_d)">
<circle cx="112" cy="112" r="111.5" transform="translate(25 25)" stroke="url(#paint0_linear)" stroke-opacity="0.01" stroke-linejoin="round" style="mix-blend-mode:luminosity"/>
</g>
<g filter="url(#filter3_d)">
<circle cx="97" cy="97" r="96" transform="translate(40 40)" stroke="url(#paint1_linear)" stroke-opacity="0.01" stroke-width="2" stroke-linejoin="round" style="mix-blend-mode:luminosity"/>
</g>
<defs>
<filter id="filter0_ddi" x="84.5625" y="45.5469" width="110.008" height="184.75" filterUnits="userSpaceOnUse" color-interpolation-filters="sRGB">
<feFlood flood-opacity="0" result="BackgroundImageFix"/>
<feColorMatrix in="SourceAlpha" type="matrix" values="0 0 0 0 0 0 0 0 0 0 0 0 0 0 0 0 0 0 255 0"/>
<feOffset/>
<feGaussianBlur stdDeviation="12.5"/>
<feColorMatrix type="matrix" values="0 0 0 0 1 0 0 0 0 0.96 0 0 0 0 0 0 0 0 1 0"/>
<feBlend mode="normal" in2="BackgroundImageFix" result="effect1_dropShadow"/>
<feColorMatrix in="SourceAlpha" type="matrix" values="0 0 0 0 0 0 0 0 0 0 0 0 0 0 0 0 0 0 255 0"/>
<feOffset/>
<feGaussianBlur stdDeviation="2"/>
<feColorMatrix type="matrix" values="0 0 0 0 0 0 0 0 0 0 0 0 0 0 0 0 0 0 0.25 0"/>
<feBlend mode="normal" in2="effect1_dropShadow" result="effect2_dropShadow"/>
<feBlend mode="normal" in="SourceGraphic" in2="effect2_dropShadow" result="shape"/>
<feColorMatrix in="SourceAlpha" type="matrix" values="0 0 0 0 0 0 0 0 0 0 0 0 0 0 0 0 0 0 255 0" result="hardAlpha"/>
<feOffset/>
<feGaussianBlur stdDeviation="10"/>
<feComposite in2="hardAlpha" operator="arithmetic" k2="-1" k3="1"/>
<feColorMatrix type="matrix" values="0 0 0 0 1 0 0 0 0 0.96 0 0 0 0 0 0 0 0 0.23 0"/>
<feBlend mode="normal" in2="shape" result="effect3_innerShadow"/>
</filter>
<filter id="filter1_dd" x="0" y="0" width="274" height="274" filterUnits="userSpaceOnUse" color-interpolation-filters="sRGB">
<feFlood flood-opacity="0" result="BackgroundImageFix"/>
<feColorMatrix in="SourceAlpha" type="matrix" values="0 0 0 0 0 0 0 0 0 0 0 0 0 0 0 0 0 0 255 0"/>
<feOffset/>
<feGaussianBlur stdDeviation="12.5"/>
<feColorMatrix type="matrix" values="0 0 0 0 1 0 0 0 0 0.96 0 0 0 0 0 0 0 0 1 0"/>
<feBlend mode="normal" in2="BackgroundImageFix" result="effect1_dropShadow"/>
<feColorMatrix in="SourceAlpha" type="matrix" values="0 0 0 0 0 0 0 0 0 0 0 0 0 0 0 0 0 0 255 0"/>
<feOffset/>
<feGaussianBlur stdDeviation="2"/>
<feColorMatrix type="matrix" values="0 0 0 0 0 0 0 0 0 0 0 0 0 0 0 0 0 0 0.25 0"/>
<feBlend mode="normal" in2="effect1_dropShadow" result="effect2_dropShadow"/>
<feBlend mode="normal" in="SourceGraphic" in2="effect2_dropShadow" result="shape"/>
</filter>
<filter id="filter2_d" x="15" y="15" width="244" height="244" filterUnits="userSpaceOnUse" color-interpolation-filters="sRGB">
<feFlood flood-opacity="0" result="BackgroundImageFix"/>
<feColorMatrix in="SourceAlpha" type="matrix" values="0 0 0 0 0 0 0 0 0 0 0 0 0 0 0 0 0 0 255 0"/>
<feOffset/>
<feGaussianBlur stdDeviation="5"/>
<feColorMatrix type="matrix" values="0 0 0 0 1 0 0 0 0 0.96 0 0 0 0 0 0 0 0 1 0"/>
<feBlend mode="normal" in2="BackgroundImageFix" result="effect1_dropShadow"/>
<feBlend mode="normal" in="SourceGraphic" in2="effect1_dropShadow" result="shape"/>
</filter>
<filter id="filter3_d" x="30" y="30" width="214" height="214" filterUnits="userSpaceOnUse" color-interpolation-filters="sRGB">
<feFlood flood-opacity="0" result="BackgroundImageFix"/>
<feColorMatrix in="SourceAlpha" type="matrix" values="0 0 0 0 0 0 0 0 0 0 0 0 0 0 0 0 0 0 255 0"/>
<feOffset/>
<feGaussianBlur stdDeviation="5"/>
<feColorMatrix type="matrix" values="0 0 0 0 1 0 0 0 0 0.96 0 0 0 0 0 0 0 0 1 0"/>
<feBlend mode="normal" in2="BackgroundImageFix" result="effect1_dropShadow"/>
<feBlend mode="normal" in="SourceGraphic" in2="effect1_dropShadow" result="shape"/>
</filter>
<linearGradient id="paint0_linear" x2="1" gradientUnits="userSpaceOnUse" gradientTransform="translate(224) scale(224) rotate(90)">
<stop stop-color="white" stop-opacity="0.01"/>
<stop offset="0.98895" stop-color="white"/>
</linearGradient>
<linearGradient id="paint1_linear" x2="1" gradientUnits="userSpaceOnUse" gradientTransform="translate(194) scale(194) rotate(90)">
<stop stop-color="white" stop-opacity="0.01"/>
<stop offset="0.98895" stop-color="white"/>
</linearGradient>
</defs>
</svg>
