<svg width="274" height="274" viewBox="0 0 274 274" fill="none" xmlns="http://www.w3.org/2000/svg">
<g filter="url(#filter0_ddi)">
<path d="M19.7143 9.8302C19.7143 15.258 15.3023 19.6604 9.8571 19.6604C4.41196 19.6604 0 15.258 0 9.8302C0 4.40235 4.41196 0 9.8571 0C15.3023 0 19.7143 4.40235 19.7143 9.8302Z" transform="translate(80 100)" fill="white"/>
<path d="M19.7143 62.1702C19.7143 67.598 15.3023 72.0004 9.8571 72.0004C4.41196 72.0004 0 67.598 0 62.1702C0 56.7423 4.41196 52.34 9.8571 52.34C15.3023 52.34 19.7143 56.7423 19.7143 62.1702Z" transform="translate(80 100)" fill="white"/>
<path d="M19.7143 36.0002C19.7143 41.428 15.3023 45.8304 9.8571 45.8304C4.41196 45.8304 0 41.428 0 36.0002C0 30.5723 4.41196 26.17 9.8571 26.17C15.3023 26.17 19.7143 30.5723 19.7143 36.0002Z" transform="translate(80 100)" fill="white"/>
<path d="M115 2.7547H33.1428V15.5283H115V2.7547Z" transform="translate(80 100)" fill="white"/>
<path d="M115 55.094H33.1428V67.8676H115V55.094Z" transform="translate(80 100)" fill="white"/>
<path d="M115 28.925H33.1428V41.6986H115V28.925Z" transform="translate(80 100)" fill="white"/>
<path d="M33.1428 2.7547V1.2547H31.6428V2.7547H33.1428ZM115 2.7547H116.5V1.2547H115V2.7547ZM115 15.5283V17.0283H116.5V15.5283H115ZM33.1428 15.5283H31.6428V17.0283H33.1428V15.5283ZM33.1428 55.094V53.594H31.6428V55.094H33.1428ZM115 55.094H116.5V53.594H115V55.094ZM115 67.8676V69.3676H116.5V67.8676H115ZM33.1428 67.8676H31.6428V69.3676H33.1428V67.8676ZM33.1428 28.925V27.425H31.6428V28.925H33.1428ZM115 28.925H116.5V27.425H115V28.925ZM115 41.6986V43.1986H116.5V41.6986H115ZM33.1428 41.6986H31.6428V43.1986H33.1428V41.6986ZM18.2143 9.8302C18.2143 14.4259 14.4775 18.1604 9.8571 18.1604V21.1604C16.1271 21.1604 21.2143 16.0901 21.2143 9.8302H18.2143ZM9.8571 18.1604C5.23677 18.1604 1.5 14.426 1.5 9.8302H-1.5C-1.5 16.09 3.58715 21.1604 9.8571 21.1604V18.1604ZM1.5 9.8302C1.5 5.2344 5.23676 1.5 9.8571 1.5V-1.5C3.58716 -1.5 -1.5 3.5703 -1.5 9.8302H1.5ZM9.8571 1.5C14.4775 1.5 18.2143 5.23441 18.2143 9.8302H21.2143C21.2143 3.57029 16.1271 -1.5 9.8571 -1.5V1.5ZM18.2143 62.1702C18.2143 66.7659 14.4775 70.5004 9.8571 70.5004V73.5004C16.1271 73.5004 21.2143 68.43 21.2143 62.1702H18.2143ZM9.8571 70.5004C5.23677 70.5004 1.5 66.7659 1.5 62.1702H-1.5C-1.5 68.43 3.58715 73.5004 9.8571 73.5004V70.5004ZM1.5 62.1702C1.5 57.5744 5.23676 53.84 9.8571 53.84V50.84C3.58716 50.84 -1.5 55.9103 -1.5 62.1702H1.5ZM9.8571 53.84C14.4775 53.84 18.2143 57.5744 18.2143 62.1702H21.2143C21.2143 55.9103 16.1271 50.84 9.8571 50.84V53.84ZM18.2143 36.0002C18.2143 40.5959 14.4775 44.3304 9.8571 44.3304V47.3304C16.1271 47.3304 21.2143 42.26 21.2143 36.0002H18.2143ZM9.8571 44.3304C5.23677 44.3304 1.5 40.5959 1.5 36.0002H-1.5C-1.5 42.26 3.58715 47.3304 9.8571 47.3304V44.3304ZM1.5 36.0002C1.5 31.4044 5.23676 27.67 9.8571 27.67V24.67C3.58716 24.67 -1.5 29.7403 -1.5 36.0002H1.5ZM9.8571 27.67C14.4775 27.67 18.2143 31.4044 18.2143 36.0002H21.2143C21.2143 29.7403 16.1271 24.67 9.8571 24.67V27.67ZM33.1428 4.2547H115V1.2547H33.1428V4.2547ZM113.5 2.7547V15.5283H116.5V2.7547H113.5ZM115 14.0283H33.1428V17.0283H115V14.0283ZM34.6428 15.5283V2.7547H31.6428V15.5283H34.6428ZM33.1428 56.594H115V53.594H33.1428V56.594ZM113.5 55.094V67.8676H116.5V55.094H113.5ZM115 66.3676H33.1428V69.3676H115V66.3676ZM34.6428 67.8676V55.094H31.6428V67.8676H34.6428ZM33.1428 30.425H115V27.425H33.1428V30.425ZM113.5 28.925V41.6986H116.5V28.925H113.5ZM115 40.1986H33.1428V43.1986H115V40.1986ZM34.6428 41.6986V28.925H31.6428V41.6986H34.6428Z" transform="translate(80 100)" fill="white" fill-opacity="0.01"/>
</g>
<circle cx="112" cy="112" r="104.5" transform="translate(25 25)" stroke="white" stroke-width="15"/>
<g filter="url(#filter1_dd)">
<circle cx="112" cy="112" r="104.5" transform="translate(25 25)" stroke="white" stroke-width="15"/>
</g>
<g filter="url(#filter2_d)">
<circle cx="112" cy="112" r="111.5" transform="translate(25 25)" stroke="url(#paint0_linear)" stroke-opacity="0.01" stroke-linejoin="round" style="mix-blend-mode:luminosity"/>
</g>
<g filter="url(#filter3_d)">
<circle cx="97" cy="97" r="96" transform="translate(40 40)" stroke="url(#paint1_linear)" stroke-opacity="0.01" stroke-width="2" stroke-linejoin="round" style="mix-blend-mode:luminosity"/>
</g>
<defs>
<filter id="filter0_ddi" x="63.5" y="87.5" width="148" height="105" filterUnits="userSpaceOnUse" color-interpolation-filters="sRGB">
<feFlood flood-opacity="0" result="BackgroundImageFix"/>
<feColorMatrix in="SourceAlpha" type="matrix" values="0 0 0 0 0 0 0 0 0 0 0 0 0 0 0 0 0 0 255 0"/>
<feOffset dy="4"/>
<feGaussianBlur stdDeviation="7.5"/>
<feColorMatrix type="matrix" values="0 0 0 0 0.98 0 0 0 0 0 0 0 0 0 1 0 0 0 1 0"/>
<feBlend mode="normal" in2="BackgroundImageFix" result="effect1_dropShadow"/>
<feColorMatrix in="SourceAlpha" type="matrix" values="0 0 0 0 0 0 0 0 0 0 0 0 0 0 0 0 0 0 255 0"/>
<feOffset dy="4"/>
<feGaussianBlur stdDeviation="2"/>
<feColorMatrix type="matrix" values="0 0 0 0 0 0 0 0 0 0 0 0 0 0 0 0 0 0 0.25 0"/>
<feBlend mode="normal" in2="effect1_dropShadow" result="effect2_dropShadow"/>
<feBlend mode="normal" in="SourceGraphic" in2="effect2_dropShadow" result="shape"/>
<feColorMatrix in="SourceAlpha" type="matrix" values="0 0 0 0 0 0 0 0 0 0 0 0 0 0 0 0 0 0 255 0" result="hardAlpha"/>
<feOffset dy="4"/>
<feGaussianBlur stdDeviation="10"/>
<feComposite in2="hardAlpha" operator="arithmetic" k2="-1" k3="1"/>
<feColorMatrix type="matrix" values="0 0 0 0 0.98 0 0 0 0 0 0 0 0 0 1 0 0 0 0.23 0"/>
<feBlend mode="normal" in2="shape" result="effect3_innerShadow"/>
</filter>
<filter id="filter1_dd" x="0" y="0" width="274" height="274" filterUnits="userSpaceOnUse" color-interpolation-filters="sRGB">
<feFlood flood-opacity="0" result="BackgroundImageFix"/>
<feColorMatrix in="SourceAlpha" type="matrix" values="0 0 0 0 0 0 0 0 0 0 0 0 0 0 0 0 0 0 255 0"/>
<feOffset/>
<feGaussianBlur stdDeviation="12.5"/>
<feColorMatrix type="matrix" values="0 0 0 0 0.98 0 0 0 0 0 0 0 0 0 1 0 0 0 1 0"/>
<feBlend mode="normal" in2="BackgroundImageFix" result="effect1_dropShadow"/>
<feColorMatrix in="SourceAlpha" type="matrix" values="0 0 0 0 0 0 0 0 0 0 0 0 0 0 0 0 0 0 255 0"/>
<feOffset/>
<feGaussianBlur stdDeviation="2"/>
<feColorMatrix type="matrix" values="0 0 0 0 0 0 0 0 0 0 0 0 0 0 0 0 0 0 0.25 0"/>
<feBlend mode="normal" in2="effect1_dropShadow" result="effect2_dropShadow"/>
<feBlend mode="normal" in="SourceGraphic" in2="effect2_dropShadow" result="shape"/>
</filter>
<filter id="filter2_d" x="15" y="15" width="244" height="244" filterUnits="userSpaceOnUse" color-interpolation-filters="sRGB">
<feFlood flood-opacity="0" result="BackgroundImageFix"/>
<feColorMatrix in="SourceAlpha" type="matrix" values="0 0 0 0 0 0 0 0 0 0 0 0 0 0 0 0 0 0 255 0"/>
<feOffset/>
<feGaussianBlur stdDeviation="5"/>
<feColorMatrix type="matrix" values="0 0 0 0 0.98 0 0 0 0 0 0 0 0 0 1 0 0 0 1 0"/>
<feBlend mode="normal" in2="BackgroundImageFix" result="effect1_dropShadow"/>
<feBlend mode="normal" in="SourceGraphic" in2="effect1_dropShadow" result="shape"/>
</filter>
<filter id="filter3_d" x="30" y="30" width="214" height="214" filterUnits="userSpaceOnUse" color-interpolation-filters="sRGB">
<feFlood flood-opacity="0" result="BackgroundImageFix"/>
<feColorMatrix in="SourceAlpha" type="matrix" values="0 0 0 0 0 0 0 0 0 0 0 0 0 0 0 0 0 0 255 0"/>
<feOffset/>
<feGaussianBlur stdDeviation="5"/>
<feColorMatrix type="matrix" values="0 0 0 0 0.98 0 0 0 0 0 0 0 0 0 1 0 0 0 1 0"/>
<feBlend mode="normal" in2="BackgroundImageFix" result="effect1_dropShadow"/>
<feBlend mode="normal" in="SourceGraphic" in2="effect1_dropShadow" result="shape"/>
</filter>
<linearGradient id="paint0_linear" x2="1" gradientUnits="userSpaceOnUse" gradientTransform="translate(224) scale(224) rotate(90)">
<stop stop-color="white" stop-opacity="0.01"/>
<stop offset="0.98895" stop-color="white"/>
</linearGradient>
<linearGradient id="paint1_linear" x2="1" gradientUnits="userSpaceOnUse" gradientTransform="translate(194) scale(194) rotate(90)">
<stop stop-color="white" stop-opacity="0.01"/>
<stop offset="0.98895" stop-color="white"/>
</linearGradient>
</defs>
</svg>
