<svg width="274" height="274" viewBox="0 0 274 274" fill="none" xmlns="http://www.w3.org/2000/svg">
<g filter="url(#filter0_dd)">
<mask id="path-1-inside-1" fill="white">
<path d="M105.297 106.839H90.4688H76.6728C75.4578 106.839 74.4728 105.854 74.4728 104.639V76.1161C74.4728 74.9011 73.4878 73.9161 72.2728 73.9161H54.9666C53.765 73.9161 52.7857 74.8802 52.7669 76.0816L52.3187 104.673C52.2999 105.875 51.3206 106.839 50.119 106.839H21.9768C20.7618 106.839 19.7768 105.854 19.7768 104.639V59.056C19.7768 57.1923 17.6045 56.1728 16.1709 57.3637L9.11404 63.2265C8.16821 64.0123 6.76191 63.8703 5.99232 62.9112L0.484207 56.0471C-0.264613 55.114 -0.130394 53.7535 0.786327 52.9846L62.7675 1.00108C63.5725 0.325901 64.7427 0.314212 65.561 0.973183L87.405 18.5624C88.8444 19.7214 90.9848 18.6969 90.9848 16.8489V2.2C90.9848 0.984973 91.9698 0 93.1848 0H105.297C106.512 0 107.497 0.984973 107.497 2.2V34.867C107.497 35.4918 107.763 36.0872 108.228 36.5045L126.578 52.9695C127.451 53.7528 127.556 55.0832 126.817 55.9938L120.832 63.3639C120.036 64.345 118.578 64.4547 117.644 63.604L111.178 57.7186C109.765 56.4325 107.497 57.435 107.497 59.3455V104.639C107.497 105.854 106.512 106.839 105.297 106.839Z"/>
</mask>
<path d="M52.7669 76.0816L92.762 76.7086L92.762 76.7075L52.7669 76.0816ZM52.3187 104.673L12.3236 104.046L12.3236 104.048L52.3187 104.673ZM16.1709 57.3637L-9.38872 26.5952L-9.39028 26.5965L16.1709 57.3637ZM9.11404 63.2265L-16.4472 32.4593L-16.4474 32.4595L9.11404 63.2265ZM5.99232 62.9112L37.1904 37.8777L37.1897 37.8768L5.99232 62.9112ZM0.484207 56.0471L31.6816 31.0127L31.6808 31.0117L0.484207 56.0471ZM0.786327 52.9846L-24.918 22.3368L-24.9189 22.3376L0.786327 52.9846ZM62.7675 1.00108L88.4718 31.6489L88.4725 31.6484L62.7675 1.00108ZM65.561 0.973183L40.4728 32.1273L40.4742 32.1284L65.561 0.973183ZM87.405 18.5624L62.3182 49.7177L62.3186 49.7181L87.405 18.5624ZM108.228 36.5045L81.5117 66.2745L81.5141 66.2766L108.228 36.5045ZM126.578 52.9695L99.8641 82.7416L99.8645 82.742L126.578 52.9695ZM126.817 55.9938L157.868 81.2094L157.876 81.1998L126.817 55.9938ZM120.832 63.3639L89.7806 38.1484L89.7751 38.1552L89.7695 38.1621L120.832 63.3639ZM117.644 63.604L144.579 34.0318L144.569 34.0229L117.644 63.604ZM111.178 57.7186L138.103 28.1375L138.103 28.1372L111.178 57.7186ZM105.297 66.8392H90.4688V146.839H105.297V66.8392ZM90.4688 66.8392H76.6728V146.839H90.4688V66.8392ZM76.6728 66.8392C97.549 66.8392 114.473 83.7627 114.473 104.639H34.4728C34.4728 127.946 53.3666 146.839 76.6728 146.839V66.8392ZM114.473 104.639V76.1161H34.4728V104.639H114.473ZM114.473 76.1161C114.473 52.8099 95.5794 33.9161 72.2728 33.9161V113.916C51.3962 113.916 34.4728 96.9924 34.4728 76.1161H114.473ZM72.2728 33.9161H54.9666V113.916H72.2728V33.9161ZM54.9666 33.9161C31.9181 33.9161 13.1325 52.4093 12.7718 75.4558L92.762 76.7075C92.439 97.3512 75.612 113.916 54.9666 113.916V33.9161ZM12.7718 75.4547L12.3236 104.046L92.3138 105.3L92.762 76.7086L12.7718 75.4547ZM12.3236 104.048C12.6464 83.4089 29.4691 66.8392 50.119 66.8392V146.839C73.1721 146.839 91.9534 128.342 92.3138 105.299L12.3236 104.048ZM50.119 66.8392H21.9768V146.839H50.119V66.8392ZM21.9768 66.8392C42.8531 66.8392 59.7768 83.7628 59.7768 104.639H-20.2232C-20.2232 127.946 -1.32948 146.839 21.9768 146.839V66.8392ZM59.7768 104.639V59.056H-20.2232V104.639H59.7768ZM59.7768 59.056C59.7768 23.3072 18.1088 3.75286 -9.38872 26.5952L41.7306 88.1323C17.1003 108.593 -20.2232 91.0775 -20.2232 59.056H59.7768ZM-9.39028 26.5965L-16.4472 32.4593L34.6752 93.9938L41.7321 88.131L-9.39028 26.5965ZM-16.4474 32.4595C-0.197156 18.9587 23.9665 21.3974 37.1904 37.8777L-25.2057 87.9448C-10.4427 106.343 16.5336 109.066 34.6755 93.9936L-16.4474 32.4595ZM37.1897 37.8768L31.6816 31.0127L-30.7132 81.0816L-25.2051 87.9457L37.1897 37.8768ZM31.6808 31.0117C44.5489 47.0466 42.2402 70.4225 26.4915 83.6317L-24.9189 22.3376C-42.501 37.0846 -45.0782 63.1815 -30.7123 81.0826L31.6808 31.0117ZM26.4906 83.6325L88.4718 31.6489L37.0632 -29.6467L-24.918 22.3368L26.4906 83.6325ZM88.4725 31.6484C74.6404 43.2498 54.5346 43.4512 40.4728 32.1273L90.6492 -30.181C74.9509 -42.8228 52.5046 -42.598 37.0626 -29.6462L88.4725 31.6484ZM40.4742 32.1284L62.3182 49.7177L112.492 -12.5928L90.6479 -30.1821L40.4742 32.1284ZM62.3186 49.7181C89.926 71.9474 130.985 52.2986 130.985 16.8489H50.9848C50.9848 -14.9048 87.7628 -32.5045 112.491 -12.5932L62.3186 49.7181ZM130.985 16.8489V2.2H50.9848V16.8489H130.985ZM130.985 2.2C130.985 23.0766 114.061 40 93.1848 40V-40C69.8786 -40 50.9848 -21.1066 50.9848 2.2H130.985ZM93.1848 40H105.297V-40H93.1848V40ZM105.297 40C84.4206 40 67.4968 23.0766 67.4968 2.2H147.497C147.497 -21.1066 128.603 -40 105.297 -40V40ZM67.4968 2.2V34.867H147.497V2.2H67.4968ZM67.4968 34.867C67.4968 46.8653 72.603 58.2797 81.5117 66.2745L134.944 6.73461C142.923 13.8948 147.497 24.1184 147.497 34.867H67.4968ZM81.5141 66.2766L99.8641 82.7416L153.292 23.1975L134.942 6.73248L81.5141 66.2766ZM99.8645 82.742C84.8652 69.2839 83.0635 46.43 95.7579 30.7879L157.876 81.1998C172.048 63.7365 170.036 38.2218 153.291 23.1971L99.8645 82.742ZM95.7656 30.7783L89.7806 38.1484L151.883 88.5795L157.868 81.2094L95.7656 30.7783ZM89.7695 38.1621C103.461 21.2868 128.52 19.4054 144.579 34.0318L90.709 93.1763C108.636 109.504 136.611 107.403 151.894 88.5658L89.7695 38.1621ZM144.569 34.0229L138.103 28.1375L84.2528 87.2998L90.7188 93.1852L144.569 34.0229ZM138.103 28.1372C111.002 3.47033 67.4968 22.6959 67.4968 59.3455H147.497C147.497 92.1742 108.528 109.395 84.2531 87.3L138.103 28.1372ZM67.4968 59.3455V104.639H147.497V59.3455H67.4968ZM67.4968 104.639C67.4968 83.7629 84.4204 66.8392 105.297 66.8392V146.839C128.603 146.839 147.497 127.946 147.497 104.639H67.4968Z" transform="translate(73.3633 77.6608)" fill="white" mask="url(#path-1-inside-1)"/>
</g>
<g filter="url(#filter1_dd)">
<circle cx="112" cy="112" r="104.5" transform="translate(25 25)" stroke="white" stroke-width="15"/>
</g>
<g filter="url(#filter2_d)">
<path d="M6.38229 62.5983L5.99232 62.9112L6.38228 62.5983L0.874174 55.7342L0.484207 56.0471L0.874164 55.7342C0.295556 55.0132 0.399237 53.9619 1.10764 53.3677L63.0888 1.38418L62.7675 1.00108L63.0888 1.38417C63.7109 0.862449 64.6151 0.853424 65.2474 1.36261L65.561 0.973183L65.2474 1.36262L87.0914 18.9519C88.8579 20.3743 91.4848 19.117 91.4848 16.8489V2.2C91.4848 1.26112 92.246 0.5 93.1848 0.5H105.297C106.236 0.5 106.997 1.26112 106.997 2.2V34.867C106.997 35.634 107.323 36.3646 107.894 36.8767L108.228 36.5045L107.894 36.8767L126.244 53.3417C126.919 53.947 127 54.9751 126.429 55.6788L120.444 63.0488L120.444 63.0489C119.829 63.8068 118.702 63.8916 117.981 63.2344L117.98 63.2343L111.514 57.3489C109.78 55.7705 106.997 57.0008 106.997 59.3455V104.639C106.997 105.578 106.236 106.339 105.297 106.339H90.4688H76.6728C75.734 106.339 74.9728 105.578 74.9728 104.639V76.1161C74.9728 74.625 73.764 73.4161 72.2728 73.4161H54.9666C53.4919 73.4161 52.2901 74.5994 52.267 76.0738L51.8188 104.665C51.8042 105.594 51.0475 106.339 50.119 106.339H21.9768C21.038 106.339 20.2768 105.578 20.2768 104.639V59.056C20.2768 56.7688 17.6108 55.5176 15.8514 56.9791L16.1709 57.3637L15.8514 56.9792L8.79452 62.842C8.06364 63.4492 6.97696 63.3394 6.38229 62.5983Z" transform="translate(73.3633 77.6608)" stroke="white" stroke-opacity="0.01"/>
</g>
<g filter="url(#filter3_d)">
<circle cx="112" cy="112" r="111.5" transform="translate(25 25)" stroke="url(#paint0_linear)" stroke-opacity="0.01" stroke-linejoin="round" style="mix-blend-mode:luminosity"/>
</g>
<g filter="url(#filter4_d)">
<circle cx="97" cy="97" r="96" transform="translate(40 40)" stroke="url(#paint1_linear)" stroke-opacity="0.01" stroke-width="2" stroke-linejoin="round" style="mix-blend-mode:luminosity"/>
</g>
<defs>
<filter id="filter0_dd" x="48.3633" y="52.6608" width="177.309" height="156.839" filterUnits="userSpaceOnUse" color-interpolation-filters="sRGB">
<feFlood flood-opacity="0" result="BackgroundImageFix"/>
<feColorMatrix in="SourceAlpha" type="matrix" values="0 0 0 0 0 0 0 0 0 0 0 0 0 0 0 0 0 0 255 0"/>
<feOffset/>
<feGaussianBlur stdDeviation="12.5"/>
<feColorMatrix type="matrix" values="0 0 0 0 0 0 0 0 0 0.76 0 0 0 0 1 0 0 0 1 0"/>
<feBlend mode="normal" in2="BackgroundImageFix" result="effect1_dropShadow"/>
<feColorMatrix in="SourceAlpha" type="matrix" values="0 0 0 0 0 0 0 0 0 0 0 0 0 0 0 0 0 0 255 0"/>
<feOffset/>
<feGaussianBlur stdDeviation="2"/>
<feColorMatrix type="matrix" values="0 0 0 0 0 0 0 0 0 0 0 0 0 0 0 0 0 0 0.25 0"/>
<feBlend mode="normal" in2="effect1_dropShadow" result="effect2_dropShadow"/>
<feBlend mode="normal" in="SourceGraphic" in2="effect2_dropShadow" result="shape"/>
</filter>
<filter id="filter1_dd" x="0" y="0" width="274" height="274" filterUnits="userSpaceOnUse" color-interpolation-filters="sRGB">
<feFlood flood-opacity="0" result="BackgroundImageFix"/>
<feColorMatrix in="SourceAlpha" type="matrix" values="0 0 0 0 0 0 0 0 0 0 0 0 0 0 0 0 0 0 255 0"/>
<feOffset/>
<feGaussianBlur stdDeviation="12.5"/>
<feColorMatrix type="matrix" values="0 0 0 0 0 0 0 0 0 0.76 0 0 0 0 1 0 0 0 1 0"/>
<feBlend mode="normal" in2="BackgroundImageFix" result="effect1_dropShadow"/>
<feColorMatrix in="SourceAlpha" type="matrix" values="0 0 0 0 0 0 0 0 0 0 0 0 0 0 0 0 0 0 255 0"/>
<feOffset/>
<feGaussianBlur stdDeviation="2"/>
<feColorMatrix type="matrix" values="0 0 0 0 0 0 0 0 0 0 0 0 0 0 0 0 0 0 0.25 0"/>
<feBlend mode="normal" in2="effect1_dropShadow" result="effect2_dropShadow"/>
<feBlend mode="normal" in="SourceGraphic" in2="effect2_dropShadow" result="shape"/>
</filter>
<filter id="filter2_d" x="63.3633" y="67.6608" width="147.309" height="126.839" filterUnits="userSpaceOnUse" color-interpolation-filters="sRGB">
<feFlood flood-opacity="0" result="BackgroundImageFix"/>
<feColorMatrix in="SourceAlpha" type="matrix" values="0 0 0 0 0 0 0 0 0 0 0 0 0 0 0 0 0 0 255 0"/>
<feOffset/>
<feGaussianBlur stdDeviation="5"/>
<feColorMatrix type="matrix" values="0 0 0 0 0 0 0 0 0 0.76 0 0 0 0 1 0 0 0 1 0"/>
<feBlend mode="normal" in2="BackgroundImageFix" result="effect1_dropShadow"/>
<feBlend mode="normal" in="SourceGraphic" in2="effect1_dropShadow" result="shape"/>
</filter>
<filter id="filter3_d" x="15" y="15" width="244" height="244" filterUnits="userSpaceOnUse" color-interpolation-filters="sRGB">
<feFlood flood-opacity="0" result="BackgroundImageFix"/>
<feColorMatrix in="SourceAlpha" type="matrix" values="0 0 0 0 0 0 0 0 0 0 0 0 0 0 0 0 0 0 255 0"/>
<feOffset/>
<feGaussianBlur stdDeviation="5"/>
<feColorMatrix type="matrix" values="0 0 0 0 0 0 0 0 0 0.76 0 0 0 0 1 0 0 0 1 0"/>
<feBlend mode="normal" in2="BackgroundImageFix" result="effect1_dropShadow"/>
<feBlend mode="normal" in="SourceGraphic" in2="effect1_dropShadow" result="shape"/>
</filter>
<filter id="filter4_d" x="30" y="30" width="214" height="214" filterUnits="userSpaceOnUse" color-interpolation-filters="sRGB">
<feFlood flood-opacity="0" result="BackgroundImageFix"/>
<feColorMatrix in="SourceAlpha" type="matrix" values="0 0 0 0 0 0 0 0 0 0 0 0 0 0 0 0 0 0 255 0"/>
<feOffset/>
<feGaussianBlur stdDeviation="5"/>
<feColorMatrix type="matrix" values="0 0 0 0 0 0 0 0 0 0.76 0 0 0 0 1 0 0 0 1 0"/>
<feBlend mode="normal" in2="BackgroundImageFix" result="effect1_dropShadow"/>
<feBlend mode="normal" in="SourceGraphic" in2="effect1_dropShadow" result="shape"/>
</filter>
<linearGradient id="paint0_linear" x2="1" gradientUnits="userSpaceOnUse" gradientTransform="translate(224) scale(224) rotate(90)">
<stop stop-color="white" stop-opacity="0.01"/>
<stop offset="0.98895" stop-color="white"/>
</linearGradient>
<linearGradient id="paint1_linear" x2="1" gradientUnits="userSpaceOnUse" gradientTransform="translate(194) scale(194) rotate(90)">
<stop stop-color="white" stop-opacity="0.01"/>
<stop offset="0.98895" stop-color="white"/>
</linearGradient>
</defs>
</svg>
